<svg width="249" height="48" viewBox="0 0 249 48" fill="none" xmlns="http://www.w3.org/2000/svg">
<path d="M176.01 17.5754C175.655 21.0735 175.3 24.5772 174.934 28.1879C173.424 28.1879 171.96 28.1879 170.405 28.1879C171.216 20.1553 172.027 12.1058 172.867 3.81413C175.903 3.91553 178.883 3.83666 181.817 4.17464C184.375 4.46755 186.307 6.63624 186.696 9.00207C187.186 11.9537 186.11 14.5505 183.727 15.9644C182.916 16.4488 182.015 16.7755 181.08 17.2149C182.893 20.6679 184.73 24.1491 186.712 27.9231C185.062 27.9231 183.62 27.9457 182.178 27.895C181.975 27.8893 181.727 27.5288 181.598 27.281C179.981 24.2673 178.387 21.2425 176.782 18.2232C176.646 17.9697 176.477 17.7388 176.325 17.5022C176.213 17.5303 176.111 17.5529 176.01 17.5754ZM176.393 13.7337C177.959 13.4296 179.395 13.2549 180.764 12.855C181.879 12.5283 182.431 11.3454 182.279 10.1512C182.15 9.10347 181.434 8.31485 180.297 8.17966C179.356 8.06701 178.398 8.0839 177.446 8.10643C177.266 8.11207 176.967 8.39371 176.945 8.57397C176.742 10.1794 176.59 11.7904 176.393 13.7337Z" fill="white"/>
<path d="M141.114 26.053C139.441 28.2442 137.278 29.4834 134.687 29.8158C133.211 30.0073 131.639 30.0242 130.18 29.7369C126.198 28.9539 123.905 25.8108 123.899 21.4565C123.894 16.3023 127.516 12.0382 132.58 11.2327C138.663 10.2638 143.947 15.7222 142.494 21.5748C137.818 21.7269 133.121 21.879 128.434 22.0311C128.271 23.828 129.572 25.4559 131.391 25.8164C133.318 26.1994 135.075 25.7713 136.624 24.5828C137.035 24.2673 137.334 24.1941 137.807 24.4476C138.872 25.0109 139.965 25.5009 141.114 26.053ZM137.999 18.4823C137.52 16.4882 135.819 15.2659 133.712 15.2941C131.459 15.3222 129.397 16.798 128.941 18.7696C131.971 18.6738 134.974 18.5781 137.999 18.4823Z" fill="white"/>
<path d="M239.544 8.41061C239.076 13.0916 238.603 17.7782 238.136 22.4704C238.034 23.5013 237.938 24.5377 237.865 25.5742C237.831 26.0868 237.645 26.3177 237.093 26.3008C235.922 26.267 234.75 26.2896 233.528 26.2896C233.528 25.7826 233.528 25.27 233.528 24.6335C233.336 24.7743 233.224 24.8419 233.133 24.9264C229.883 28.2555 223.169 28.0471 220.82 21.7438C218.623 15.863 222.38 9.23865 228.526 8.22472C230.852 7.84168 232.857 8.48384 234.44 10.2807C234.547 10.4047 234.66 10.523 234.902 10.7877C234.998 9.92024 235.077 9.22175 235.167 8.40498C236.609 8.41061 238.029 8.41061 239.544 8.41061ZM234.559 16.9164C234.547 13.2099 231.427 11.1595 228.008 12.6128C225.546 13.6549 224.121 16.5615 224.667 19.4005C225.157 21.9353 227.106 23.3435 229.675 23.0112C232.548 22.6394 234.564 20.1215 234.559 16.9164Z" fill="white"/>
<path d="M59.6557 31.9112C58.1405 31.9112 56.6703 31.9112 55.1212 31.9112C55.2451 30.6326 55.3634 29.3314 55.493 28.0301C56.1577 21.5354 56.828 15.0406 57.4758 8.54016C57.5377 7.93744 57.6955 7.64452 58.3714 7.65579C60.8612 7.70649 63.3791 7.49806 65.8463 7.76845C69.2768 8.14585 71.2596 10.354 71.5469 13.5929C71.8173 16.6403 69.919 19.7441 66.9279 20.6454C65.1253 21.1918 63.1932 21.2931 61.3175 21.5917C61.1541 21.6199 60.9851 21.6255 60.7316 21.648C60.3767 25.0334 60.0219 28.4188 59.6557 31.9112ZM61.1147 17.4853C62.7201 17.1698 64.1396 16.9896 65.4915 16.5896C66.5955 16.2573 67.125 15.1307 66.9955 13.9534C66.8659 12.8043 66.2406 12.0664 64.9958 11.9256C63.9255 11.8016 62.8327 11.903 61.723 11.903C61.5315 13.683 61.34 15.4236 61.1147 17.4853Z" fill="white"/>
<path d="M92.1747 21.5635C92.2986 28.0414 85.6855 33.3251 78.6049 31.01C75.5124 29.996 73.7099 27.1514 73.5466 23.3999C73.2931 17.5247 77.974 12.6522 83.8436 12.6635C88.4063 12.6747 91.8987 15.9813 92.1691 20.5496C92.1916 20.8932 92.1747 21.2312 92.1747 21.5635ZM87.8373 21.4678C87.8655 18.2063 85.3926 16.246 82.165 16.9727C79.4217 17.5923 77.5403 20.6454 77.9853 23.766C78.3289 26.1882 80.1596 27.6471 82.5874 27.4387C85.7869 27.157 87.8092 24.8644 87.8373 21.4678Z" fill="white"/>
<path d="M208.168 44.867C207.154 44.9909 206.141 45.1768 205.121 45.2332C200.812 45.4641 196.497 45.6387 192.188 45.8697C188.639 46.0612 185.09 46.3147 181.541 46.54C176.849 46.8385 172.157 47.261 167.453 47.4075C159.522 47.6497 151.585 47.7454 143.654 47.8525C140.736 47.8919 137.819 47.8018 134.901 47.7567C132.208 47.7116 129.521 47.6497 126.829 47.5934C124.249 47.5427 121.675 47.4694 119.095 47.4413C114.38 47.3962 109.665 47.3793 104.956 47.3399C104.776 47.3399 104.595 47.2835 104.415 47.2497C104.41 47.1765 104.404 47.1033 104.398 47.0357C105.125 46.9287 105.852 46.7653 106.584 46.7315C109.051 46.6358 111.518 46.5851 113.986 46.5231C118.554 46.4048 123.122 46.3034 127.69 46.1795C133.797 46.0161 139.903 45.8359 146.014 45.6613C152.149 45.4866 158.289 45.3064 164.423 45.143C171.678 44.9515 178.939 44.7318 186.2 44.6192C193.213 44.5121 200.226 44.5178 207.239 44.4783C207.537 44.4783 207.842 44.5121 208.14 44.5347C208.146 44.653 208.157 44.76 208.168 44.867Z" fill="white"/>
<path d="M202.265 9.27245C203.713 9.27245 205.076 9.27245 206.574 9.27245C206.518 9.90898 206.473 10.5906 206.394 11.2665C206.005 14.635 205.797 18.0373 205.166 21.3607C204.208 26.3966 199.696 28.9652 194.796 27.5176C192.154 26.7346 190.227 24.4701 190.255 21.7044C190.284 18.7978 190.605 15.8912 190.824 12.9846C190.903 11.8974 191.055 10.8159 191.185 9.63859C192.627 9.63859 194.007 9.63859 195.5 9.63859C195.348 11.2327 195.201 12.8437 195.049 14.4548C194.863 16.4094 194.655 18.3584 194.497 20.3187C194.362 22.0367 195.19 23.2816 196.609 23.6083C198.412 24.0195 200.153 23.2478 200.614 21.5692C201.071 19.9074 201.279 18.1669 201.499 16.4488C201.797 14.1112 202 11.7678 202.265 9.27245Z" fill="white"/>
<path d="M155.343 16.6629C154.92 16.2742 154.565 15.8574 154.126 15.5701C153.546 15.1927 152.926 14.8434 152.273 14.635C151.58 14.4153 150.893 14.6406 150.555 15.3391C150.233 16.0094 150.735 16.4544 151.208 16.815C152.56 17.8627 153.968 18.8428 155.281 19.9356C156.379 20.8538 156.97 22.0987 157.032 23.5463C157.156 26.436 154.971 28.9539 152.025 29.3539C148.865 29.782 146.358 28.7962 144.223 26.2501C145.051 25.2193 145.885 24.1772 146.803 23.045C147.164 23.428 147.468 23.7829 147.811 24.0927C148.769 24.9489 149.862 25.4615 151.185 25.3207C151.867 25.2475 152.447 24.9827 152.689 24.2899C152.937 23.5914 152.543 23.0901 152.047 22.6901C151.461 22.2113 150.825 21.7945 150.217 21.3438C149.496 20.8087 148.741 20.3186 148.065 19.7272C146.442 18.3077 145.654 16.5446 146.251 14.3872C146.848 12.2241 148.487 11.12 150.56 10.7257C153.027 10.2582 155.157 11.013 156.869 12.8888C157.19 13.238 157.224 13.5028 156.965 13.9084C156.379 14.8209 155.855 15.7785 155.343 16.6629Z" fill="white"/>
<path d="M95.1039 30.5481C95.5883 25.9234 96.0727 21.2988 96.5684 16.5671C95.853 16.5671 95.1771 16.5671 94.4392 16.5671C94.5462 15.4067 94.6194 14.3477 94.7715 13.3C94.7997 13.0972 95.1095 12.8156 95.3348 12.7761C95.8474 12.6747 96.3825 12.6973 96.9684 12.6635C97.1712 10.7539 97.4134 8.89504 97.5486 7.03053C97.6049 6.26445 97.8077 5.92648 98.6301 5.97154C99.7398 6.0335 100.855 5.98844 102.038 5.98844C101.818 8.15712 101.599 10.292 101.373 12.4945C102.303 12.4945 103.159 12.4945 104.122 12.4945C103.987 13.7732 103.863 14.9786 103.728 16.2629C102.804 16.3136 101.914 16.3643 100.962 16.415C100.726 18.6682 100.489 20.8876 100.258 23.1126C100.021 25.3996 99.8017 27.6865 99.537 29.9679C99.5145 30.1763 99.2666 30.5199 99.1145 30.5255C97.8133 30.565 96.5008 30.5481 95.1039 30.5481Z" fill="white"/>
<path d="M244.501 1.02019C245.982 1.02019 247.374 1.02019 248.861 1.02019C248.726 2.42842 248.602 3.84229 248.461 5.25052C247.802 11.8354 247.131 18.4147 246.489 24.9996C246.433 25.608 246.286 25.9009 245.605 25.8727C244.439 25.822 243.267 25.8558 242.011 25.8558C242.833 17.6486 243.661 9.40201 244.501 1.02019Z" fill="white"/>
<path d="M212.9 27.0557C211.418 27.0557 210.005 27.0557 208.501 27.0557C209.081 21.1523 209.661 15.2209 210.252 9.19924C211.554 9.19924 212.799 9.19924 214.139 9.19924C214.094 9.82449 214.043 10.4723 213.981 11.3172C215.339 9.43582 216.759 7.99942 219.322 8.72607C218.837 10.0836 218.381 11.3623 217.93 12.6297C216.037 12.6015 214.973 13.2099 214.381 15.6433C213.812 17.9697 213.627 20.3919 213.317 22.7803C213.137 24.1434 213.046 25.5179 212.9 27.0557Z" fill="white"/>
<path d="M105.806 12.3762C107.141 12.3762 108.369 12.3762 109.693 12.3762C109.642 13.024 109.597 13.6774 109.53 14.5055C110.893 12.6635 112.301 11.1877 114.87 11.9368C114.391 13.2887 113.935 14.5674 113.478 15.8348C111.513 15.801 110.459 16.5502 109.907 18.9273C109.366 21.265 109.169 23.6815 108.859 26.0699C108.685 27.4274 108.589 28.7906 108.443 30.2552C106.972 30.2552 105.559 30.2552 104.049 30.2552C104.635 24.3575 105.215 18.426 105.806 12.3762Z" fill="white"/>
<path d="M119.63 29.9059C118.159 29.9059 116.746 29.9059 115.258 29.9059C115.872 24.0082 116.486 18.0711 117.112 12.0326C118.554 12.0326 119.962 12.0326 121.449 12.0326C120.852 17.9416 120.244 23.873 119.63 29.9059Z" fill="white"/>
<path d="M122.412 7.40231C122.39 8.91194 121.139 10.1174 119.63 10.0723C118.159 10.0273 116.971 8.81618 116.971 7.35162C116.971 5.87015 118.238 4.61401 119.725 4.62527C121.212 4.63654 122.435 5.89831 122.412 7.40231Z" fill="white"/>
<path d="M98.4216 47.3793C98.0948 47.4413 97.7681 47.537 97.4358 47.5539C94.5067 47.706 91.5719 47.8412 88.6428 47.9821C88.5583 47.9877 88.4625 48.0158 88.3949 47.9877C88.0851 47.8694 87.7809 47.7398 87.4768 47.6159C87.7753 47.4807 88.0682 47.2385 88.3724 47.2272C91.2452 47.1089 94.1236 47.0188 97.0021 46.94C97.464 46.9287 97.9315 47.0076 98.3934 47.047C98.399 47.1596 98.4103 47.2723 98.4216 47.3793Z" fill="white"/>
<path d="M212.68 44.5347C214.522 44.5347 216.206 44.5347 217.969 44.5347C217.265 45.6275 213.638 45.6669 212.68 44.5347Z" fill="white"/>
<path d="M22.191 21.1861C22.4276 21.2312 22.6642 21.265 22.9008 21.3157C23.0416 21.3439 23.143 21.3326 23.1993 21.1805C23.25 21.0509 23.3289 21.0115 23.4641 21.0735C23.5204 21.1016 23.588 21.1129 23.6556 21.1129C24.033 21.1129 24.3822 21.0059 24.7033 20.8256C24.8385 20.7468 24.923 20.5778 25.0469 20.4764C25.3567 20.2229 25.7285 20.099 26.1116 20.0257C26.5904 19.9356 27.041 19.7835 27.4973 19.6202C28.0493 19.4287 28.6126 19.2822 29.1759 19.1245C29.373 19.0681 29.5758 19.0287 29.7786 18.9893C29.9758 18.9499 30.094 18.8147 30.1954 18.6569C30.325 18.4598 30.4884 18.3809 30.7418 18.3415C31.046 18.2964 31.3446 18.1443 31.6149 17.981C32.2515 17.6036 32.8429 17.1642 33.3724 16.6403C33.5977 16.415 33.9019 16.3305 34.2005 16.2517C34.4145 16.201 34.6342 16.1784 34.8426 16.1277C34.9327 16.1052 35.0172 16.0545 35.0961 16.0095C35.5355 15.756 36.003 15.6095 36.5156 15.5645C36.8986 15.5307 37.2761 15.4011 37.6478 15.2941C37.9013 15.2208 38.1435 15.1082 38.397 15.0237C38.5942 14.9617 38.7519 14.8603 38.8533 14.6801C38.8645 14.6632 38.8758 14.6519 38.8814 14.635C39.011 14.3477 39.2194 14.2745 39.5349 14.3252C39.7489 14.359 39.9855 14.2801 40.2052 14.2182C40.7572 14.0717 41.298 13.8858 41.788 13.576C41.8331 13.5479 41.8838 13.5253 41.9232 13.4915C42.3119 13.1761 42.7625 13.0972 43.2413 13.1648C43.4216 13.1874 43.6075 13.2099 43.7821 13.2549C43.8553 13.2775 43.9567 13.3563 43.968 13.4239C44.0525 13.9985 44.2947 14.5167 44.4919 15.0519C44.6608 15.5194 44.8298 15.9813 45.0044 16.4488C45.1002 16.6967 45.2016 16.9445 45.2974 17.1924C45.3255 17.2656 45.3481 17.3388 45.3537 17.4121C45.3988 18.0598 45.5734 18.6738 45.8325 19.2709C45.9508 19.5469 46.0522 19.8342 46.1029 20.1328C46.2155 20.82 46.3 21.5128 46.3845 22.2057C46.424 22.5211 46.4521 22.8422 46.4578 23.1577C46.469 23.6534 46.3451 24.1265 46.1705 24.5941C46.131 24.7011 46.0916 24.8194 46.0916 24.9377C46.0747 25.4672 46.0071 25.991 45.8212 26.4811C45.7142 26.7627 45.5396 27.0106 45.4269 27.2922C45.1678 27.9457 44.92 28.5991 44.689 29.2638C44.3848 30.1369 44.0637 30.9931 43.523 31.7535C42.9372 32.5759 42.3682 33.4153 41.7824 34.2377C41.5853 34.508 41.3374 34.7446 41.1346 35.015C40.9882 35.2065 40.8473 35.4037 40.7459 35.6177C40.3178 36.5077 39.7771 37.3133 39.0335 37.9667C38.7913 38.1807 38.504 38.3384 38.2449 38.53C38.1154 38.6257 38.0027 38.7496 37.8731 38.8567C37.8112 38.9074 37.738 38.975 37.6647 38.975C37.1521 38.9806 36.7297 39.2453 36.2959 39.4594C35.8228 39.696 35.3721 39.9889 34.899 40.2255C34.4934 40.4283 34.054 40.5353 33.5865 40.5578C33.3161 40.5691 33.0457 40.6254 32.781 40.6817C32.4205 40.7606 32.0712 40.862 31.7107 40.9409C31.598 40.9634 31.4234 41.0479 31.4178 40.8C31.4178 40.7775 31.3389 40.7324 31.2939 40.7324C30.9953 40.7268 30.7024 40.7155 30.4039 40.7381C30.263 40.7493 30.1391 40.8507 29.9983 40.8902C29.604 40.9916 29.204 41.0761 28.7928 40.9972C28.5844 40.9578 28.376 40.9183 28.1619 40.8958C28.0775 40.8902 27.993 40.9296 27.9085 40.9578C27.3283 41.1324 26.7481 41.0761 26.1679 40.969C25.6328 40.8733 25.1765 40.5973 24.7371 40.2931C24.6808 40.2536 24.647 40.1523 24.647 40.079C24.6414 39.7748 24.6639 39.4763 24.6583 39.1721C24.6526 39.02 24.6132 38.8679 24.5681 38.7271C24.309 37.961 24.1288 37.1893 24.2752 36.3669C24.3597 35.8937 24.2414 35.4093 24.14 34.9418C24.033 34.4405 23.8865 33.9447 23.7739 33.4434C23.7176 33.2012 23.7232 32.9477 23.6612 32.7111C23.5542 32.2943 23.4359 31.8831 23.2838 31.4775C23.1543 31.1339 23.1317 30.7903 23.1543 30.4298C23.1768 30.0186 23.2162 29.6017 23.2162 29.1905C23.2162 28.785 23.0416 28.4188 22.8613 28.0696C22.7431 27.8499 22.76 27.6359 22.7994 27.4162C22.8444 27.1627 22.9515 26.9092 22.9571 26.6557C22.9627 26.391 22.8951 26.1206 22.8275 25.8615C22.7881 25.6981 22.76 25.5573 22.8219 25.3939C22.9233 25.1461 22.8106 24.9151 22.7149 24.6955C22.6248 24.4814 22.4952 24.2786 22.3938 24.0646C22.3487 23.9688 22.3206 23.8618 22.315 23.7604C22.2924 23.3154 22.0502 22.9436 21.9544 22.5268C21.8643 22.1381 21.7911 21.7438 21.7235 21.3439C21.7179 21.3101 21.7855 21.2256 21.8249 21.2199C21.9432 21.1974 22.0727 21.1974 22.1967 21.1918C22.1854 21.1974 22.191 21.1918 22.191 21.1861ZM34.1892 31.3705C34.2005 31.3536 34.2061 31.3367 34.2174 31.3198C34.1723 31.2747 34.1329 31.224 34.0822 31.1902C33.8738 31.055 33.6484 30.9424 33.4569 30.7903C32.2965 29.8496 31.6938 28.6273 31.6994 27.1345C31.7051 26.0699 32.0656 25.1179 32.7415 24.2899C33.4794 23.3886 34.4314 22.8478 35.5693 22.6732C36.2509 22.5662 36.9437 22.6113 37.6197 22.8253C38.2674 23.0337 38.8364 23.3604 39.3264 23.8111C40.1995 24.6166 40.6896 25.6249 40.8079 26.8134C40.8192 26.9036 40.8811 27.0219 40.9544 27.0669C41.1853 27.2077 41.298 27.3824 41.2754 27.6302C41.2529 27.8893 41.0896 28.0752 40.8417 28.1541C40.7797 28.1766 40.7178 28.2386 40.6896 28.3005C40.5826 28.5653 40.5094 28.8413 40.3911 29.0948C39.8334 30.2833 38.9603 31.117 37.6929 31.517C37.6366 31.5338 37.5859 31.5676 37.5295 31.5902C37.5295 31.6071 37.5295 31.6296 37.5352 31.6465C37.6197 31.6634 37.6985 31.6859 37.783 31.6916C38.1886 31.7254 38.5998 31.7423 39.0054 31.793C39.5799 31.8606 40.132 31.7817 40.6558 31.5451C41.0614 31.3592 41.4163 31.0888 41.467 30.5931C41.5289 30.0411 41.574 29.4835 41.619 28.9314C41.7317 27.6527 41.8218 26.3684 41.957 25.0954C42.0077 24.611 41.8387 24.273 41.4951 23.9744C40.9544 23.5069 40.3009 23.3379 39.6137 23.2872C39.4335 23.276 39.3546 23.2084 39.287 23.0563C39.1237 22.6507 38.8814 22.2958 38.5547 22.0029C38.29 21.7663 37.9914 21.6311 37.6309 21.6086C36.9944 21.5635 36.3579 21.5016 35.7214 21.4396C35.3609 21.4058 35.0398 21.5016 34.7469 21.7044C34.4032 21.9409 34.1385 22.2451 33.9582 22.6225C33.8907 22.7577 33.8118 22.8084 33.6484 22.7859C33.2598 22.7352 32.8711 22.7183 32.4824 22.6732C32.0543 22.6225 31.6149 22.6507 31.2037 22.4366C30.7306 22.1888 30.2856 22.3409 29.8744 22.6338C29.7899 22.6958 29.6885 22.7352 29.5983 22.7915C29.4068 22.9098 29.1928 23.0056 29.0407 23.1577C28.9055 23.2929 28.7816 23.49 28.759 23.6703C28.6633 24.442 28.6069 25.2137 28.5394 25.9854C28.4436 27.1176 28.3535 28.2498 28.2464 29.3821C28.2183 29.6806 28.2971 29.9285 28.483 30.1538C28.7083 30.4298 28.9956 30.6326 29.3167 30.7734C29.8011 30.9875 30.3137 31.0607 30.8376 31.1057C31.9022 31.1959 32.9725 31.2916 34.0371 31.3818C34.0765 31.3705 34.1329 31.3705 34.1892 31.3705ZM36.2396 22.769C33.8681 22.7577 31.8234 24.7011 31.8572 27.2641C31.891 29.7482 33.8906 31.5958 36.1889 31.6183C38.628 31.6465 40.6727 29.6975 40.6502 27.1402C40.6333 24.5828 38.5378 22.7183 36.2396 22.769ZM41.1571 27.5908C41.0952 27.4725 41.0501 27.3711 40.9938 27.281C40.9713 27.2472 40.9093 27.2246 40.8755 27.2303C40.8473 27.2359 40.8135 27.2979 40.8079 27.3373C40.7854 27.5007 40.7685 27.664 40.7572 27.8274C40.7516 27.8668 40.7685 27.94 40.791 27.9457C40.8304 27.9626 40.9093 27.9569 40.9318 27.9288C41.0163 27.8274 41.0783 27.7147 41.1571 27.5908Z" fill="white"/>
<path d="M25.3342 18.0598C25.0807 18.1725 24.8498 18.3077 24.5963 18.3809C24.2358 18.4879 23.8697 18.5612 23.4979 18.6344C23.3852 18.6569 23.2613 18.6457 23.143 18.6344C22.7487 18.5893 22.4276 18.7358 22.1516 19.0062C21.9038 19.2484 21.6615 19.485 21.3968 19.7047C21.2954 19.7892 21.1546 19.8455 21.0194 19.8737C20.6589 19.9469 20.2927 19.9807 19.9379 20.0652C19.6675 20.1328 19.4084 20.2623 19.1436 20.3468C18.586 20.5214 18.0339 20.7017 17.4706 20.8538C16.913 21.0059 16.3497 21.1242 15.7864 21.265C15.7244 21.2819 15.6681 21.327 15.6118 21.3608C15.6512 21.4227 15.685 21.4847 15.7301 21.541C15.7413 21.5579 15.7695 21.5692 15.792 21.5804C15.792 21.5973 15.792 21.6199 15.792 21.6368C15.5836 21.71 15.3808 21.7832 15.1724 21.8452C15.1386 21.8564 15.0823 21.8058 15.0372 21.7776C14.8457 21.6537 14.6598 21.7213 14.5697 21.924C14.5415 21.986 14.457 22.0367 14.3894 22.0536C14.288 22.0761 14.1754 22.0536 14.074 22.0649C14.012 22.0705 13.9331 22.0874 13.8993 22.1325C13.8092 22.2564 13.6853 22.2564 13.5557 22.2846C13.0375 22.3859 12.5136 22.4817 11.9954 22.6C11.5955 22.6958 11.2012 22.8253 10.8069 22.9436C10.7956 22.9492 10.7843 22.9492 10.7731 22.9492C10.3393 22.9042 10.0577 23.1689 9.75913 23.4168C9.68591 23.4731 9.60141 23.5351 9.51692 23.552C9.16768 23.6196 8.8128 23.6928 8.45792 23.7322C7.96786 23.7885 7.46089 23.7773 6.97646 23.8674C6.51456 23.9519 6.05266 24.0758 5.70905 24.442C5.68088 24.4701 5.60202 24.4645 5.54569 24.4589C5.51189 24.4532 5.48373 24.4251 5.45556 24.4025C5.02183 24.0195 4.5205 24.1716 4.0417 24.2504C3.65302 24.3124 3.26998 24.4082 2.88694 24.5152C2.40814 24.6504 2.00257 24.8813 1.81668 25.3996C1.69839 25.7263 1.51814 26.0417 1.19143 26.2163C1.01681 26.3065 0.81402 26.3403 0.622499 26.3966C0.594335 26.4022 0.560537 26.3966 0.532372 26.4022C0.442245 26.4191 0.295788 26.4755 0.273256 26.4417C0.200028 26.3403 0.149332 26.2107 0.138066 26.0868C0.0873694 25.6362 0.0648379 25.1799 0.0085085 24.7292C-0.036555 24.3744 0.109901 24.0589 0.154965 23.721C0.205661 23.3379 0.171864 22.9661 0.104269 22.5944C0.0761039 22.4423 0.0648377 22.2789 0.0704707 22.1212C0.0817366 21.648 0.0930027 21.1749 0.1268 20.7073C0.138066 20.5327 0.211294 20.3637 0.27889 20.2004C0.47041 19.7272 0.684462 19.254 0.870349 18.7752C0.926678 18.6344 0.904146 18.4598 0.921045 18.3021C0.988641 17.7782 1.04497 17.26 1.12946 16.7417C1.20833 16.2855 1.29282 15.8236 1.51814 15.4067C1.53504 15.3729 1.55193 15.3279 1.55757 15.2884C1.597 14.9955 1.62516 14.7026 1.68149 14.4153C1.76035 14.0492 1.92371 13.7168 2.14339 13.407C2.19409 13.3394 2.22226 13.2493 2.23352 13.1648C2.32365 12.6015 2.48137 12.0608 2.88131 11.6439C3.37701 11.1313 3.64739 10.5173 3.70372 9.83012C3.74315 9.39638 3.83891 8.9908 3.99663 8.59087C4.13182 8.24726 4.34587 7.97688 4.70075 7.84169C4.81904 7.79662 4.94297 7.76283 5.03873 7.69523C5.13449 7.62763 5.23588 7.53187 5.28094 7.43048C5.56259 6.78269 6.06392 6.35459 6.61595 5.94902C7.10602 5.59414 7.56229 5.18857 8.04672 4.8168C8.18191 4.7154 8.35653 4.67034 8.51989 4.60275C8.80153 4.48445 9.09445 4.43939 9.40426 4.47882C9.47749 4.49009 9.57325 4.45629 9.63521 4.41686C10.1309 4.09015 10.621 3.75217 11.1223 3.41419C11.2575 3.52685 11.2462 3.52122 11.342 3.3297C11.3758 3.2621 11.4659 3.22267 11.5335 3.16634C11.5898 3.11565 11.6687 3.07622 11.6969 3.01426C11.7588 2.89033 12.125 2.65375 12.2714 2.64248C12.3559 2.63685 12.446 2.60305 12.5249 2.55798C12.6995 2.45659 12.8629 2.2707 13.0431 2.2538C13.2685 2.23691 13.3924 2.10172 13.5614 2.02849C13.8881 1.88767 14.2486 1.82007 14.5866 1.70178C14.7105 1.65672 14.8063 1.54969 14.9189 1.48209C15.0203 1.42013 15.133 1.35253 15.2456 1.33C15.4315 1.2962 15.623 1.30184 15.8089 1.27367C16.1187 1.22861 16.4229 1.16665 16.7271 1.11032C17.0425 1.04836 17.358 0.975128 17.6791 0.930064C18.0058 0.879368 18.3381 0.817406 18.6648 0.834305C19.0366 0.851204 19.4027 0.963863 19.7745 1.01456C19.9379 1.03709 20.1125 1.00893 20.2815 0.997661C20.7377 0.969496 21.1996 0.930063 21.6559 0.92443C21.8869 0.92443 22.1178 0.99766 22.3488 1.03146C22.4783 1.05399 22.5628 1.11595 22.5628 1.25114C22.5684 1.47083 22.5741 1.68488 22.5572 1.90457C22.5346 2.20874 22.5121 2.51855 22.4671 2.8171C22.422 3.11565 22.5121 3.3804 22.6191 3.65641C22.7093 3.88736 22.76 4.14084 22.7825 4.39432C22.7938 4.55205 22.7149 4.7154 22.6811 4.87312C22.6304 5.12097 22.5684 5.36882 22.5403 5.62231C22.5065 5.91522 22.4896 6.21377 22.4952 6.50668C22.4952 6.6306 22.5684 6.75453 22.6135 6.87282C22.8219 7.46991 23.0078 8.067 23.0585 8.70353C23.081 8.99644 23.2219 9.27809 23.2951 9.571C23.4472 10.1625 23.7401 10.7201 23.6781 11.3566C23.6669 11.4918 23.6387 11.627 23.5824 11.7453C23.4866 11.9425 23.5373 12.1115 23.6274 12.2804C23.7457 12.5058 23.8021 12.7311 23.8077 12.9902C23.8133 13.193 23.8697 13.4127 23.9542 13.5986C24.0274 13.7619 24.033 13.9084 23.9936 14.0605C23.8302 14.6913 24.0161 15.2377 24.3879 15.7391C24.7315 16.2066 24.9624 16.7023 25.0188 17.2881C25.0413 17.5134 25.1878 17.7275 25.2723 17.9416C25.3004 17.9754 25.3061 17.9979 25.3342 18.0598ZM8.97615 14.9054C8.98742 14.9054 8.99305 14.9054 9.00432 14.9054C9.00432 15.5419 8.98742 16.1841 9.00995 16.8206C9.02685 17.2543 9.10571 17.6881 9.16204 18.1218C9.18457 18.2908 9.29723 18.3866 9.44932 18.4204C9.67464 18.4711 9.89996 18.5274 10.1309 18.5386C10.6491 18.5612 11.173 18.5612 11.6912 18.5724C11.8433 18.5781 11.894 18.5274 11.894 18.3697C11.8771 17.3445 11.8659 16.3249 11.849 15.2997C11.8433 15.0575 11.849 15.0462 12.0855 15.0406C12.9023 15.035 13.7191 15.0293 14.5359 15.0237C14.6542 15.0237 14.6992 15.0575 14.6992 15.187C14.7049 16.1953 14.7218 17.198 14.733 18.2063C14.733 18.4485 14.7387 18.4711 14.9809 18.4373C15.6625 18.3471 16.3497 18.2457 17.0313 18.1331C17.6171 18.0373 17.7354 17.9078 17.7297 17.3163C17.7241 16.5671 17.7072 15.8123 17.6509 15.0631C17.5889 14.2069 17.4932 13.3563 17.3974 12.5001C17.3805 12.3593 17.4087 12.3199 17.5439 12.3142C17.8987 12.303 18.2536 12.2748 18.6085 12.2635C18.9803 12.2523 19.352 12.2466 19.7238 12.2298C19.7689 12.2298 19.8365 12.1565 19.8534 12.1058C19.8759 12.027 19.8308 11.9819 19.7351 11.9819C19.6675 11.9819 19.5943 11.9481 19.5436 11.9087C18.417 11.0919 17.3016 10.2639 16.1638 9.46397C15.3639 8.89505 14.5133 8.39935 13.6008 8.02194C13.2121 7.85859 12.8235 7.80226 12.4404 8.02194C11.9391 8.31485 11.4209 8.58524 10.959 8.92885C9.44932 10.0442 8.01292 11.2552 6.62722 12.517C6.56525 12.5734 6.49203 12.6128 6.44133 12.6747C6.41317 12.7085 6.4019 12.7761 6.41317 12.8212C6.4188 12.8437 6.49203 12.8663 6.53146 12.8663C6.75114 12.855 6.96519 12.8381 7.18488 12.8268C7.72564 12.793 8.27204 12.7705 8.8128 12.7367C8.91983 12.7311 8.98179 12.7536 8.97615 12.8775C8.97615 13.5591 8.97615 14.2294 8.97615 14.9054ZM16.4229 9.14853C16.6201 9.13726 16.8228 9.00207 16.9862 8.78802C17.2172 8.47821 17.3411 8.1177 17.4256 7.74592C17.5382 7.23896 17.634 6.72637 17.7354 6.21377C17.7466 6.14617 17.7579 6.01661 17.7354 6.00535C17.6622 5.97718 17.5608 5.96591 17.4875 5.99408C17.3073 6.05604 17.1383 6.1349 16.9637 6.20813C16.3778 6.46725 15.8427 6.79959 15.4484 7.31782C15.2794 7.53751 15.1499 7.77972 15.178 8.07264C15.2287 8.6472 15.9835 9.14853 16.4229 9.14853Z" fill="white"/>
<path d="M17.7127 40.2142C17.7634 40.1241 17.7972 40.0678 17.831 40.0114C17.7691 39.9945 17.7015 39.9608 17.6395 39.9551C17.5043 39.9495 17.3691 39.9777 17.2565 39.865C17.2283 39.8368 17.1551 39.8481 17.1044 39.8481C16.4791 39.8425 15.8539 39.8425 15.2286 39.8425C15.0258 39.6735 14.6991 39.8087 14.5189 39.5608C14.4907 39.5214 14.378 39.527 14.3104 39.5327C14.1415 39.5552 13.9781 39.589 13.8091 39.6228C13.7809 39.3975 13.5444 39.3186 13.3641 39.4538C13.0937 39.6509 12.9585 39.6678 12.6994 39.4538C12.4516 39.251 12.2319 39.0144 11.9897 38.7947C11.9502 38.7609 11.8883 38.7384 11.8319 38.7328C11.601 38.7271 11.37 38.7271 11.1391 38.7271C11.1166 38.7271 11.0828 38.7215 11.0715 38.7328C10.9025 38.913 10.7392 38.7722 10.5814 38.7215C10.0069 38.5413 9.43232 38.3723 8.86339 38.1695C8.22687 37.9385 7.59598 37.6907 7.08338 37.2119C6.63274 36.795 6.09761 36.4571 5.69767 36.0008C5.40476 35.6741 5.09495 35.5671 4.70064 35.5164C4.30634 35.4713 3.86133 35.0376 3.74304 34.6602C3.71488 34.5644 3.60785 34.4743 3.51209 34.4179C3.33747 34.3109 3.11779 34.2602 2.9657 34.1363C2.74038 33.956 2.54323 33.7307 2.34607 33.511C1.90107 33.0153 1.62506 32.4182 1.34904 31.8268C1.08429 31.2635 0.83081 30.7002 0.605492 30.1256C0.481568 29.8102 0.430871 29.4666 0.35201 29.1342C0.284415 28.8582 0.233718 28.5822 0.154857 28.3118C0.0928944 28.0978 0.0928944 28.0245 0.29568 27.9401C0.633657 27.7992 0.971634 27.6584 1.32651 27.5739C1.70392 27.4838 2.10386 27.495 2.48126 27.4106C2.81924 27.3373 3.14595 27.2078 3.46703 27.0726C3.57969 27.0219 3.63602 26.8585 3.74304 26.7853C4.02469 26.5994 4.34577 26.5712 4.67811 26.5769C4.85273 26.5769 5.03299 26.5712 5.20198 26.5374C5.43293 26.4867 5.65824 26.4135 5.88356 26.3459C5.93426 26.329 5.98495 26.3065 6.02438 26.2727C6.2835 26.0755 6.56515 25.9685 6.89749 26.0023C7.05521 26.0192 7.16787 25.9685 7.28053 25.839C7.74243 25.2982 8.35079 25.0447 9.05491 24.9997C9.51681 24.9715 9.97308 25.0109 10.4293 25.0898C10.6885 25.1348 10.9588 25.056 11.1391 24.7969C11.4602 24.3237 11.9052 24.0477 12.4797 24.0139C12.6149 24.0083 12.7614 24.0421 12.8966 24.0815C13.1275 24.1434 13.319 24.1716 13.4937 23.935C13.5951 23.7942 13.764 23.6872 13.9218 23.597C14.1246 23.4844 14.3386 23.5295 14.5414 23.614C14.7667 23.7097 14.9357 23.7153 15.1216 23.5069C15.2624 23.3492 15.4708 23.2478 15.6567 23.1408C15.8595 23.0225 16.0623 23.0563 16.2594 23.1746C16.4735 23.2985 16.496 23.2872 16.62 23.0845C16.8058 22.7803 16.941 22.7465 17.2846 22.8084C17.5438 22.8535 17.8141 22.8704 18.0733 22.831C18.8168 22.7239 19.4815 22.4029 20.118 22.0255C20.18 21.986 20.2532 21.9579 20.349 21.9015C20.3659 22.0762 20.3602 22.2339 20.4053 22.3691C20.4729 22.5775 20.5348 22.8141 20.6813 22.9662C21.0362 23.3492 21.115 23.7942 21.0925 24.2786C21.0869 24.4702 21.0193 24.6617 21.0024 24.8532C20.9911 24.9659 20.9967 25.0954 21.0474 25.1912C21.4474 25.9854 21.7121 26.8135 21.6952 27.7035C21.6896 28.0752 21.6502 28.4526 21.5037 28.8132C21.2615 29.3933 21.3685 29.9341 21.7854 30.4073C21.8361 30.4636 21.8755 30.5537 21.8699 30.627C21.7966 31.4268 21.8248 32.2098 22.0895 32.9759C22.1177 33.0491 22.1177 33.1393 22.1121 33.2181C22.0895 33.6406 22.0783 34.0574 22.1909 34.4686C22.1966 34.4968 22.2022 34.5306 22.2191 34.5531C22.4332 34.7841 22.3994 35.0714 22.4106 35.353C22.4332 35.8825 22.5514 36.3895 22.7035 36.8964C22.9176 37.6118 23.0246 38.3497 22.9795 39.1045C22.9683 39.3299 22.912 39.5495 22.9176 39.7749C22.9176 39.9101 22.9739 40.0509 23.0359 40.1692C23.2781 40.6198 23.2894 40.6142 22.8106 40.6423C22.2022 40.6761 21.5995 40.7663 20.9911 40.7663C20.2532 40.7663 19.5097 40.755 18.7943 40.5466C18.4901 40.4564 18.1803 40.3776 17.8761 40.2875C17.8029 40.2762 17.7578 40.2424 17.7127 40.2142ZM8.07478 34.739C8.05788 34.9587 8.10857 35.2178 8.20433 35.4882C8.46345 36.2205 9.43795 36.9471 10.266 36.8852C10.48 36.8683 10.6941 36.8852 10.9025 36.8795C10.9588 36.8795 11.0152 36.857 11.0602 36.8288C11.1391 36.7838 11.2067 36.7105 11.2856 36.6711C11.7418 36.4402 12.0742 36.1022 12.3164 35.6515C12.3502 35.584 12.4459 35.5276 12.5192 35.5107C12.6938 35.4769 12.874 35.4938 13.043 35.4488C13.319 35.3755 13.6401 35.3474 13.7753 35.0488C13.8767 34.8291 14.0288 34.7784 14.2372 34.7728C14.3273 34.7728 14.4794 34.7728 14.502 34.7277C14.6034 34.5362 14.8005 34.5362 14.9582 34.4517C15.0371 34.4123 15.0822 34.3109 15.1385 34.2377C15.0653 34.187 14.992 34.0969 14.9075 34.0856C14.6541 34.0462 14.4513 33.9448 14.2654 33.7758C14.1753 33.6857 14.164 33.6181 14.2372 33.5167C14.5245 33.1055 14.8118 32.6886 15.0934 32.2774C15.2568 32.0465 15.4145 31.8099 15.5835 31.5846C15.6173 31.5339 15.7243 31.4775 15.7525 31.4944C15.9046 31.5846 16.0679 31.6803 16.1806 31.8099C16.4341 32.1028 16.4172 32.1084 16.1412 32.3675C15.1216 33.3251 15.0991 34.8629 16.2538 35.798C16.5298 36.0177 16.8678 36.1811 17.2058 36.2937C17.4424 36.3726 17.7184 36.3219 17.9831 36.3275C18 36.3275 18.0226 36.3219 18.0282 36.3106C18.0958 36.1867 18.2141 36.2148 18.3267 36.2092C18.3887 36.2036 18.4676 36.2092 18.5183 36.1754C18.8844 35.9445 19.2731 35.736 19.4984 35.353C19.6336 35.1333 19.7406 34.8967 19.8533 34.6602C20.0054 34.3391 20.0673 34.0124 19.8476 33.6913C19.8307 33.6688 19.8307 33.635 19.8364 33.6068C19.8814 33.3533 19.7857 33.1505 19.6505 32.9308C19.059 31.9845 18.0338 31.562 17.0086 31.8662C16.6707 31.9676 16.6706 31.9676 16.5186 31.6296C16.4622 31.5001 16.4284 31.3367 16.2256 31.348C16.2031 31.348 16.1524 31.3029 16.1524 31.286C16.1581 31.2522 16.1862 31.2128 16.2144 31.1959C16.5524 31.0325 16.6594 30.7791 16.5524 30.4185C16.5411 30.3904 16.6087 30.3059 16.6425 30.3059C16.7777 30.289 16.9185 30.2946 17.0593 30.2946C17.1663 30.2946 17.3072 30.3284 17.3241 30.1932C17.341 30.0749 17.3072 29.9341 17.2452 29.8327C17.1325 29.6412 16.9354 29.5905 16.7213 29.613C16.2538 29.6694 15.8313 29.5398 15.4314 29.3145C15.3469 29.2638 15.2624 29.2018 15.2061 29.123C15.0033 28.8244 14.8963 28.4977 14.9413 28.1316C14.947 28.0921 14.9526 28.0302 14.9751 28.0189C15.1498 27.9457 15.3356 27.8274 15.5103 27.833C15.7187 27.8387 15.8539 27.7823 15.9215 27.6077C15.9778 27.45 15.9834 27.2754 16.0229 27.112C16.0398 27.0388 16.0567 26.943 16.113 26.9036C16.2425 26.8022 16.2651 26.6952 16.2313 26.5431C16.1299 26.1375 15.7975 25.884 15.3075 25.8559C15.1723 25.8502 15.0089 25.8052 14.9075 25.8671C14.7723 25.946 14.6484 25.9629 14.5076 25.9685C14.4118 25.9685 14.3161 25.9967 14.3273 26.115C14.3442 26.3009 14.3555 26.4924 14.4118 26.667C14.4907 26.9036 14.4231 27.0444 14.1696 27.0726C13.9556 27.0951 13.7415 27.0951 13.5331 27.1402C12.6318 27.3148 11.8545 27.726 11.2067 28.3794C11.0771 28.509 10.9081 28.616 10.925 28.8413C10.925 28.8864 10.8856 28.9427 10.8518 28.9821C10.5983 29.2976 10.5533 29.6694 10.542 30.0524C10.542 30.0975 10.5983 30.1538 10.6434 30.1876C10.9419 30.4073 11.2461 30.6213 11.5447 30.8354C11.5672 30.8523 11.5841 30.8804 11.5897 30.9086C11.6799 31.2128 11.8826 31.4775 11.8545 31.8155C11.8545 31.8493 11.8826 31.8944 11.9108 31.9169C12.0404 32.007 12.0178 32.0972 11.9333 32.2042C11.8319 32.3281 11.7306 32.4464 11.6348 32.5816C11.5503 32.6999 11.4771 32.7055 11.3531 32.6323C10.7786 32.2999 10.1702 32.2549 9.55624 32.4802C8.57611 32.852 8.08041 33.6012 8.07478 34.739Z" fill="white"/>
<path d="M25.0357 0.000629389C25.3004 0.0569588 25.5652 0.107657 25.8243 0.169619C26.0609 0.225949 26.2918 0.220314 26.5397 0.180883C26.8776 0.124554 27.2381 0.118923 27.5818 0.169619C28.0268 0.231582 28.4887 0.276646 28.8886 0.535762C28.928 0.558293 29.0069 0.547025 29.0576 0.524493C29.4125 0.338606 29.7842 0.338609 30.1673 0.394938C30.3813 0.428736 30.5954 0.479431 30.8094 0.530127C30.9221 0.558292 30.9784 0.625887 30.9672 0.749812C30.9615 0.811774 30.9728 0.879369 30.9784 0.946964C30.9897 1.07089 31.0573 1.13849 31.1925 1.13849C31.2882 1.13849 31.384 1.13849 31.4741 1.13849C31.6318 1.13849 31.7896 1.11032 31.9304 1.22861C31.9698 1.26241 32.043 1.25114 32.105 1.25114C32.4486 1.25114 32.7922 1.26241 33.1358 1.24551C33.3724 1.23425 33.5639 1.31874 33.7555 1.4314C33.8738 1.49899 34.0089 1.52716 34.1385 1.57786C34.606 1.75248 35.0341 2.00032 35.4003 2.33267C35.7326 2.63685 36.0819 2.91286 36.4874 3.11565C36.7466 3.24521 36.9775 3.42546 37.2254 3.57755C37.3155 3.62825 37.4169 3.69021 37.5183 3.69021C38.3181 3.67894 38.8758 4.11268 39.3546 4.68161C39.9855 5.44206 40.5713 6.23067 41.0952 7.06998C41.4106 7.58257 41.5684 8.1177 41.6923 8.68663C41.7148 8.79929 41.7993 8.90068 41.8556 9.00771C41.957 9.18796 42.1035 9.35132 42.1485 9.54284C42.2556 10.0216 42.3119 10.5061 42.3851 10.9905C42.4302 11.2609 42.4696 11.5369 42.5147 11.8073C42.5372 11.9594 42.4809 12.0213 42.3232 12.0157C41.9345 12.0101 41.5909 12.1678 41.3036 12.41C40.9487 12.7086 40.5544 12.9282 40.1263 13.0916C39.625 13.2831 39.1068 13.4296 38.5998 13.5929C38.5378 13.6155 38.4477 13.6324 38.397 13.6098C37.9576 13.4127 37.5464 13.5084 37.1296 13.6887C37.062 13.7168 36.9662 13.7112 36.8986 13.6887C36.679 13.6098 36.4649 13.5253 36.2283 13.5873C36.1945 13.5986 36.1438 13.531 36.0931 13.5141C36.0481 13.4972 35.9861 13.4746 35.9523 13.4972C35.727 13.638 35.5073 13.7957 35.282 13.9422C35.0905 14.0661 34.8933 14.1788 34.6962 14.297C34.6905 14.3027 34.6793 14.3027 34.6793 14.3083C34.6624 14.5956 34.3469 14.5674 34.2117 14.7477C33.9864 15.0406 33.6428 15.1589 33.2823 15.1532C32.5275 15.1307 31.8966 15.4518 31.2826 15.8348C31.0798 15.9644 30.8883 16.1165 30.6911 16.2629C30.4715 16.4207 30.2461 16.539 29.9701 16.5728C29.8349 16.5897 29.6716 16.6572 29.5815 16.7586C29.2829 17.0741 29.0013 17.4064 28.7309 17.75C28.6126 17.8965 28.5056 17.9923 28.3084 18.026C27.8071 18.1049 27.3114 18.2063 26.81 18.3077C26.6918 18.3302 26.6242 18.2908 26.5904 18.1894C26.534 18.0092 26.4777 17.8289 26.4383 17.643C26.2298 16.7699 26.1397 15.8855 26.0721 14.9955C26.0609 14.8434 26.0383 14.6857 26.1623 14.5562C26.1848 14.528 26.1904 14.466 26.1792 14.421C26.0327 13.9027 25.8919 13.3845 25.7229 12.8775C25.6384 12.6297 25.475 12.41 25.3624 12.1678C25.2103 11.8242 25.03 11.458 25.1089 11.0806C25.1709 10.7708 25.0695 10.5342 24.9568 10.2808C24.7371 9.79069 24.6639 9.27246 24.6808 8.74296C24.6864 8.50638 24.7484 8.27543 24.7597 8.03884C24.7822 7.53188 24.6245 7.05871 24.4724 6.58554C24.3653 6.24193 24.1738 5.90396 24.3203 5.53781C24.4273 5.26743 24.3372 5.05338 24.2414 4.8168C24.202 4.70977 24.1795 4.58021 24.202 4.47319C24.3034 3.93806 24.264 3.40293 24.2302 2.8678C24.2076 2.49039 23.9823 2.18058 23.9316 1.82007C23.8809 1.47646 23.8584 1.13285 23.8415 0.783608C23.8358 0.716013 23.8922 0.637156 23.9316 0.580826C24.0837 0.310445 24.6639 -0.0162694 25.0357 0.000629389ZM35.4003 4.64781C35.4003 4.59148 35.4003 4.54641 35.4003 4.50698C35.4003 3.92116 35.0229 3.54375 34.4314 3.56628C34.2512 3.57192 34.0709 3.61698 33.8907 3.65641C33.778 3.67894 33.6991 3.65641 33.6372 3.55502C33.502 3.33533 33.2936 3.20578 33.0626 3.10438C32.5838 2.89033 32.0768 2.87343 31.5642 2.87906C31.3727 2.87906 31.1587 2.95792 30.9953 2.77767C30.9784 2.76077 30.9277 2.7664 30.8939 2.77767C30.4151 2.87906 29.9307 2.96356 29.4632 3.10438C29.2885 3.15508 29.1364 3.32407 28.9956 3.45926C28.9224 3.53248 28.8717 3.56629 28.7703 3.53812C28.6182 3.49306 28.4605 3.45362 28.3028 3.42546C27.8747 3.3466 27.5254 3.53812 27.3226 3.92116C27.1142 4.3211 27.1086 4.72104 27.2832 5.11534C27.4128 5.40826 27.5874 5.68427 27.7395 5.97718C27.7845 6.06168 27.8296 6.16307 27.8183 6.2532C27.7113 7.13757 27.8183 8.00504 28.1056 8.84435C28.3929 9.67803 28.7421 10.4892 29.0351 11.3172C29.2153 11.8354 29.4688 12.3424 29.4744 12.917C29.4744 12.9789 29.5082 13.0465 29.5533 13.0916C29.8518 13.407 30.2067 13.6098 30.6461 13.6605C30.8094 13.683 30.9897 13.6042 31.1192 13.7675C31.1305 13.7788 31.1643 13.7788 31.1868 13.7788C31.3953 13.7788 31.6037 13.7788 31.8065 13.7675C31.8572 13.7675 31.9135 13.7281 31.9586 13.6999C32.0261 13.6549 32.0768 13.5929 32.1444 13.5591C32.4655 13.3789 32.8148 13.2211 32.7697 12.7536C32.7697 12.7254 32.781 12.6973 32.7922 12.6691C33.1077 11.7284 33.4569 10.799 33.9695 9.93714C34.5835 8.90068 34.8032 7.75719 34.73 6.55738C34.7187 6.34332 34.775 6.19687 34.8877 6.02225C35.1581 5.60541 35.451 5.18294 35.4003 4.64781Z" fill="white"/>
<path d="M32.06 23.7491C32.3134 23.7548 32.5219 23.9519 32.5106 24.1772C32.505 24.4251 32.274 24.656 32.0487 24.6504C31.8065 24.6448 31.6093 24.4307 31.6206 24.1829C31.6206 23.9237 31.8121 23.7379 32.06 23.7491Z" fill="white"/>
<path d="M30.5052 30.4805C30.5221 30.2101 30.539 29.9453 30.5615 29.675C30.5784 29.506 30.6122 29.337 30.6291 29.168C30.7023 28.4301 30.7699 27.6865 30.8319 26.9486C30.8488 26.7796 30.8432 26.605 30.8544 26.436C30.8826 26.0136 30.9164 25.5911 30.9502 25.163C30.9502 25.1348 30.9671 25.1123 31.0178 25.0841C31.029 25.1405 31.0459 25.1968 31.0403 25.2531C30.9783 25.884 30.9107 26.5093 30.8544 27.1401C30.8037 27.6865 30.7699 28.2329 30.7249 28.7793C30.6854 29.3201 30.6404 29.8609 30.5953 30.4016C30.5953 30.4298 30.5728 30.4636 30.5615 30.4917C30.5502 30.4861 30.5277 30.4861 30.5052 30.4805Z" fill="white"/>
<path d="M30.6685 22.5437C30.8037 22.5775 30.9445 22.6057 31.0741 22.6564C31.2205 22.7183 31.2205 22.8422 31.091 22.9211C30.9107 23.0338 30.4826 22.9718 30.3362 22.8197C30.2573 22.7352 30.2798 22.662 30.37 22.6226C30.4601 22.5831 30.5615 22.5719 30.6685 22.5437Z" fill="white"/>
<path d="M36.3072 23.7716C38.1492 23.7773 39.625 25.2925 39.6644 27.0838C39.7095 29.1342 38.0816 30.6945 36.1044 30.61C34.3075 30.5368 32.8711 29.1117 32.8485 27.2641C32.826 25.1799 34.4539 23.7322 36.3072 23.7716Z" fill="white"/>
<path d="M13.2628 12.6804C12.7221 12.6804 12.3052 12.2973 12.3108 11.796C12.3108 11.3116 12.7333 10.9229 13.2572 10.9229C13.7923 10.9229 14.2092 11.3116 14.2092 11.8073C14.2092 12.303 13.7979 12.6804 13.2628 12.6804Z" fill="white"/>
<path d="M14.4063 30.9481C14.4345 30.7453 14.3331 30.5932 14.1923 30.4918C13.8937 30.2777 13.5839 30.0862 13.2741 29.8891C13.1671 29.8215 13.0544 29.7708 12.953 29.7032C12.8629 29.6468 12.8629 29.5792 12.953 29.5229C13.015 29.4835 13.077 29.4441 13.1446 29.4328C13.4544 29.3934 13.7135 29.2356 13.9613 29.061C14.1022 28.9596 14.1754 29.0047 14.2599 29.1286C14.3951 29.337 14.5584 29.5285 14.6936 29.737C14.8176 29.9285 14.9865 30.0411 15.2006 30.0975C15.3245 30.1313 15.3752 30.1876 15.3639 30.3228C15.3583 30.4073 15.4146 30.5031 15.4541 30.5875C15.5104 30.7058 15.4766 30.7847 15.3583 30.8241C15.0767 30.9199 14.8007 31.0213 14.5134 31.1001C14.35 31.1508 14.412 31.0156 14.4063 30.9481Z" fill="white"/>
<path d="M19.4196 34.4517C19.4365 34.4912 19.4591 34.525 19.4703 34.5644C19.476 34.5982 19.476 34.6545 19.4591 34.677C19.4365 34.6939 19.3802 34.6939 19.352 34.6827C19.183 34.6151 19.0197 34.5419 18.8563 34.4743C18.8451 34.4968 18.8338 34.5193 18.8225 34.5419C18.9634 34.6151 19.1042 34.6883 19.245 34.7672C19.2957 34.7953 19.3408 34.8404 19.3689 34.8911C19.3802 34.908 19.3408 34.9869 19.3182 34.9869C19.2732 34.9925 19.2168 34.9756 19.1774 34.9531C19.0253 34.8573 18.8789 34.7503 18.7268 34.6489C18.7042 34.6376 18.6761 34.6376 18.6254 34.6714C18.7831 34.7897 18.9408 34.908 19.0929 35.0319C19.1324 35.0657 19.1774 35.1051 19.1943 35.1558C19.1999 35.1784 19.1436 35.2572 19.1211 35.2516C19.0704 35.246 19.0197 35.2122 18.9803 35.1784C18.8338 35.0432 18.693 34.9024 18.5465 34.7615C18.5296 34.7784 18.5127 34.7953 18.4958 34.8122C18.6198 34.9531 18.7493 35.0883 18.8732 35.2234C18.9014 35.2516 18.9577 35.2741 18.9634 35.3023C18.9634 35.3586 18.9408 35.415 18.9239 35.4713C18.8732 35.4544 18.8113 35.4488 18.7831 35.415C18.6873 35.2967 18.6141 35.1615 18.5184 35.0432C18.4057 34.9024 18.417 34.7672 18.5071 34.6376C18.6141 34.4912 18.7437 34.3616 18.862 34.2264C18.8169 34.1701 18.7324 34.08 18.6817 33.9729C18.6648 33.9335 18.7268 33.8546 18.7606 33.7758C18.7042 33.7476 18.6198 33.7025 18.5296 33.6519C18.5691 33.5786 18.6029 33.5167 18.6479 33.4378C18.5691 33.4265 18.5184 33.4209 18.417 33.404C18.5409 33.2575 18.6479 33.1336 18.7549 33.0097C18.8113 32.9421 18.8676 32.8745 18.9352 32.8182C18.9634 32.79 19.0084 32.7562 19.0479 32.7562C19.076 32.7562 19.1267 32.8069 19.1267 32.8351C19.1267 32.8801 19.0986 32.9365 19.0704 32.9703C18.969 33.0717 18.8563 33.1562 18.7493 33.2519C18.7606 33.2688 18.7775 33.2857 18.7887 33.3026C18.8958 33.2294 18.9972 33.1505 19.1042 33.0773C19.1493 33.0491 19.1999 33.021 19.2506 33.021C19.2788 33.021 19.3351 33.0942 19.3295 33.1111C19.307 33.1618 19.2675 33.2068 19.2225 33.235C19.1324 33.2857 19.0366 33.3195 18.9408 33.3646C18.9465 33.3871 18.9521 33.4096 18.9577 33.4322C19.0253 33.4209 19.0986 33.4096 19.1661 33.3871C19.2225 33.3702 19.2675 33.3139 19.3182 33.3082C19.3689 33.3026 19.4309 33.3364 19.4872 33.3533C19.4534 33.3984 19.4309 33.466 19.3858 33.4885C19.2901 33.5392 19.183 33.5674 19.0817 33.6012C19.0873 33.6237 19.0929 33.6406 19.0986 33.6631C19.1887 33.6406 19.2788 33.6181 19.3689 33.6012C19.4196 33.5899 19.476 33.5843 19.521 33.6012C19.5436 33.6068 19.5661 33.6913 19.5548 33.7025C19.5154 33.742 19.4647 33.7758 19.414 33.7814C19.3013 33.7983 19.1887 33.7983 19.076 33.8039C19.076 33.8321 19.076 33.8603 19.076 33.8884C19.1774 33.8884 19.2844 33.8828 19.3858 33.8884C19.4478 33.8941 19.5154 33.9166 19.5717 33.9504C19.5886 33.9617 19.583 34.0631 19.5605 34.0743C19.5098 34.0969 19.4422 34.0969 19.3802 34.0969C19.2957 34.0969 19.2112 34.0912 19.1267 34.0856C19.1267 34.1081 19.1211 34.1306 19.1211 34.1475C19.1999 34.1588 19.2844 34.1644 19.3633 34.187C19.4365 34.2095 19.4985 34.2433 19.5661 34.2771C19.4985 34.3334 19.4591 34.3954 19.4196 34.4517C19.3182 34.3053 19.1661 34.3053 18.9634 34.3165C19.1267 34.4461 19.2619 34.4855 19.4196 34.4517Z" fill="white"/>
<path d="M9.40439 34.0518C9.48326 34.1926 9.3537 34.2377 9.2861 34.3053C9.24667 34.3447 9.19598 34.3672 9.12275 34.4123C9.21287 34.4517 9.2692 34.4742 9.3875 34.5249C9.24667 34.5925 9.15091 34.6376 9.05515 34.6827C9.05515 34.6939 9.05515 34.7052 9.05515 34.7165C9.10585 34.7221 9.15654 34.7277 9.20724 34.739C9.2523 34.7503 9.29174 34.7728 9.3368 34.7953C9.303 34.8291 9.26357 34.8573 9.22977 34.8911C9.21851 34.9023 9.20161 34.908 9.19034 34.9136C9.29174 35.0037 9.39313 35.0882 9.49452 35.1784L9.50015 35.1727C9.3706 35.2572 9.24104 35.3304 9.12275 35.4318C9.02135 35.5107 8.94249 35.6177 8.858 35.7135L8.86363 35.7079C8.8073 35.6684 8.74534 35.629 8.68901 35.5896C8.73407 35.5445 8.76787 35.4882 8.81857 35.4544C8.97066 35.3417 9.12275 35.2403 9.27484 35.1333C9.2692 35.1164 9.26357 35.0995 9.25794 35.0826C9.20724 35.0995 9.14528 35.1108 9.10022 35.1389C8.97629 35.2178 8.858 35.3079 8.73407 35.3868C8.70028 35.4093 8.63268 35.4037 8.59325 35.3868C8.56509 35.3755 8.53692 35.3079 8.54819 35.2854C8.56509 35.246 8.61015 35.2065 8.64958 35.1896C8.72844 35.1502 8.81294 35.122 8.89743 35.0882C8.8918 35.0657 8.88616 35.0488 8.88053 35.0263C8.80167 35.0488 8.72281 35.0882 8.64395 35.0882C8.58198 35.0882 8.51439 35.0432 8.45243 35.0206C8.50312 34.9756 8.54819 34.9249 8.60452 34.8911C8.64395 34.8685 8.70028 34.8742 8.75097 34.8629C8.75097 34.846 8.75097 34.8291 8.75097 34.8066C8.68338 34.801 8.61015 34.8122 8.54819 34.7897C8.49749 34.7728 8.45806 34.7221 8.413 34.6827C8.45806 34.6545 8.50312 34.6151 8.54819 34.6038C8.62142 34.5925 8.69464 34.5982 8.76787 34.5982C8.77351 34.5813 8.77351 34.5587 8.77914 34.5418C8.70591 34.5249 8.62705 34.5249 8.55945 34.4911C8.50876 34.463 8.46933 34.4066 8.42426 34.3616C8.48059 34.339 8.53129 34.2996 8.58762 34.294C8.66085 34.2884 8.73971 34.3109 8.81857 34.3165C8.8242 34.294 8.82983 34.2715 8.83547 34.2546C8.76787 34.232 8.70591 34.2151 8.64395 34.187C8.59325 34.1644 8.54819 34.1306 8.51439 34.0912C8.50312 34.0799 8.53692 34.0011 8.56509 33.9954C8.61015 33.9842 8.66085 33.9954 8.70591 34.0123C8.8073 34.0461 8.90306 34.0856 8.99882 34.125C9.01009 34.1025 9.02135 34.0799 9.02699 34.0574C8.92559 34.0067 8.8242 33.956 8.72844 33.8997C8.68901 33.8771 8.64395 33.8377 8.62705 33.7983C8.61578 33.7814 8.66085 33.7138 8.68901 33.7082C8.73407 33.7025 8.7904 33.7194 8.82983 33.742C9.01572 33.8377 9.20161 33.9391 9.3875 34.0405C9.39313 34.0461 9.39876 34.0461 9.40439 34.0518Z" fill="white"/>
<path d="M18.1972 35.6741C18.169 35.5558 18.1634 35.4262 18.1127 35.3136C18.0169 35.0882 18.0169 35.0319 18.2253 34.846C18.3887 35.0713 18.552 35.291 18.7041 35.5163C18.721 35.5389 18.676 35.6008 18.6647 35.6459C18.614 35.6234 18.5351 35.6177 18.5126 35.5783C18.4281 35.4206 18.3549 35.246 18.2817 35.0826C18.2704 35.0601 18.2479 35.0375 18.1915 35.0263C18.1915 35.077 18.1746 35.1389 18.1972 35.1784C18.2591 35.3248 18.3324 35.4656 18.4112 35.6008C18.4788 35.7191 18.4619 35.7642 18.3267 35.7867C18.1521 35.8149 17.9831 35.8487 17.8085 35.8881C17.6677 35.9219 17.6057 35.8769 17.6113 35.736C17.617 35.6177 17.6113 35.4938 17.6113 35.3755C17.5944 35.3755 17.5775 35.3755 17.5663 35.3699C17.5606 35.4769 17.5606 35.5839 17.5494 35.6853C17.5437 35.7473 17.5212 35.8149 17.4874 35.8656C17.4761 35.8825 17.3691 35.8656 17.3635 35.8487C17.3522 35.7811 17.3466 35.7079 17.3579 35.6403C17.3748 35.5332 17.4029 35.4262 17.4311 35.3192C17.4086 35.3136 17.3804 35.3079 17.3579 35.3023C17.3241 35.4206 17.2959 35.5445 17.2508 35.6572C17.2283 35.7191 17.1776 35.7698 17.1325 35.8149C17.1269 35.8205 17.0537 35.7867 17.0537 35.7698C17.0593 35.7135 17.0706 35.6515 17.0931 35.6008C17.1607 35.4544 17.2396 35.3079 17.3015 35.1615C17.3184 35.1277 17.2903 35.0713 17.279 35.0263C17.2621 35.0263 17.2452 35.0263 17.2339 35.0206C17.1551 35.1896 17.0706 35.3643 16.9917 35.5332C16.9692 35.5727 16.9579 35.6346 16.9241 35.6515C16.8847 35.6741 16.8284 35.6628 16.7777 35.6684C16.7777 35.6177 16.7551 35.5501 16.7833 35.5163C16.9298 35.3023 17.0818 35.0995 17.2508 34.8686C17.3353 34.9756 17.4198 35.0882 17.5268 35.2234C17.5437 35.1389 17.555 35.0657 17.5719 34.9756C17.7916 35.1671 17.7578 35.46 17.8761 35.7248C18.0338 35.4318 17.662 35.2009 17.8874 34.9136C17.9831 35.1896 18.0676 35.4375 18.1521 35.6853C18.1521 35.6853 18.1746 35.6797 18.1972 35.6741Z" fill="white"/>
<path d="M9.88303 33.2463C9.86613 33.1618 9.8436 33.0829 9.83234 32.9984C9.8267 32.9477 9.82107 32.8858 9.83234 32.8407C9.83797 32.8182 9.92246 32.7957 9.93936 32.8126C9.97879 32.8576 10.0126 32.9083 10.0295 32.9646C10.052 33.0435 10.052 33.1336 10.0577 33.2181C10.0802 33.2181 10.1084 33.2181 10.1309 33.2181C10.1309 33.1336 10.1253 33.0491 10.1309 32.9646C10.1365 32.9027 10.1478 32.8407 10.1759 32.7844C10.1816 32.7731 10.2604 32.7675 10.2661 32.7788C10.2942 32.8407 10.3111 32.9027 10.3224 32.9703C10.3337 33.0266 10.3224 33.0829 10.3224 33.1393C10.3393 33.1449 10.3506 33.1449 10.3675 33.1505C10.3844 33.066 10.3956 32.9759 10.4294 32.897C10.452 32.8463 10.5083 32.8126 10.5477 32.7731C10.5703 32.8294 10.6097 32.897 10.6041 32.9477C10.5815 33.0717 10.5365 33.19 10.497 33.3139C10.5196 33.3251 10.5477 33.3308 10.5703 33.342C10.6209 33.2125 10.6604 33.0829 10.7223 32.9646C10.7505 32.9139 10.8237 32.8914 10.8801 32.852C10.8857 32.9139 10.9026 32.9759 10.8857 33.0322C10.8519 33.1505 10.8012 33.2688 10.7561 33.3871C10.773 33.3984 10.7899 33.404 10.8068 33.4153C10.835 33.3871 10.8688 33.3589 10.8857 33.3252C10.9251 33.2463 10.942 33.1505 10.9927 33.0829C11.0265 33.0322 11.1054 33.0153 11.1673 32.9815C11.1673 33.0435 11.1899 33.128 11.1561 33.1731C11.0322 33.3477 10.8913 33.5167 10.7561 33.6857C10.7167 33.7307 10.6604 33.7645 10.5872 33.8208C10.5759 33.7195 10.5703 33.6519 10.5534 33.5448C10.4238 33.7138 10.3224 33.6744 10.2379 33.511C10.1928 33.5786 10.1534 33.6293 10.1365 33.6519C10.052 33.6406 9.99006 33.635 9.9281 33.6181C9.8943 33.6068 9.84924 33.5843 9.83234 33.5561C9.72531 33.3815 9.61829 33.2069 9.52253 33.0266C9.50563 32.9928 9.54506 32.9365 9.56196 32.8858C9.61265 32.9139 9.68588 32.9365 9.70841 32.9815C9.75348 33.0717 9.76474 33.1731 9.79291 33.2745C9.83234 33.2632 9.85487 33.2519 9.88303 33.2463Z" fill="white"/>
<path d="M9.74213 35.46C9.83226 35.5164 9.91675 35.5671 10.0069 35.6234V35.6178C9.98435 35.8093 10.1984 36.0008 10.3843 35.9332C10.5645 35.8712 10.6209 35.9332 10.649 36.0966C10.6547 36.1472 10.6941 36.1923 10.7166 36.243C10.7335 36.2374 10.7504 36.2317 10.7673 36.2261C10.7448 36.1529 10.711 36.0853 10.6997 36.0121C10.6941 35.967 10.7166 35.9163 10.7223 35.8712C10.7673 35.8938 10.8293 35.905 10.8575 35.9445C10.9138 36.0177 10.9476 36.1078 10.9926 36.1923C11.0152 36.181 11.0433 36.1698 11.0659 36.1585C11.0377 36.0966 11.0039 36.0346 10.9814 35.967C10.9645 35.9107 10.9645 35.8487 10.9532 35.7924C11.0039 35.8205 11.0659 35.8318 11.1053 35.8712C11.1729 35.9276 11.218 36.0008 11.2799 36.0684C11.3701 36.1641 11.325 36.2148 11.2292 36.2486C11.0659 36.3106 10.9025 36.3782 10.7392 36.4233C10.604 36.4627 10.4632 36.4852 10.3223 36.4852C10.2829 36.4852 10.2209 36.3895 10.204 36.3275C10.1759 36.243 10.1815 36.1529 10.1702 36.0684C10.1533 36.0684 10.1364 36.074 10.1195 36.074C10.1252 36.1641 10.1364 36.2543 10.1364 36.35C10.1308 36.4852 10.0576 36.5247 9.93365 36.4627C9.87732 36.4345 9.80973 36.4176 9.74213 36.4176C9.61258 36.4176 9.56751 36.3613 9.62384 36.243C9.69144 36.0965 9.7703 35.9501 9.82663 35.798C9.84353 35.7529 9.81536 35.691 9.79846 35.6403C9.7872 35.5727 9.76467 35.5164 9.74213 35.46Z" fill="white"/>
<path d="M13.9669 33.0266C13.9782 32.9759 13.9838 32.9195 13.9951 32.8689C14.0739 32.5083 14.1584 32.1422 14.2204 31.7817C14.2486 31.6352 14.2992 31.5507 14.4457 31.5057C14.7048 31.4324 14.9527 31.3367 15.2118 31.2578C15.2287 31.2691 15.24 31.286 15.2569 31.2973C14.8456 31.8831 14.4401 32.4689 14.0289 33.0604C14.012 33.0435 13.9894 33.0322 13.9669 33.0266Z" fill="white"/>
<path d="M18.0115 32.7675C18.0565 32.6379 18.1016 32.5027 18.1523 32.3732C18.1692 32.3281 18.203 32.283 18.2424 32.2605C18.2593 32.2492 18.3325 32.2887 18.3382 32.3112C18.3494 32.3563 18.3325 32.4126 18.3156 32.452C18.2199 32.6379 18.1185 32.8238 18.0171 33.021C17.972 32.9928 17.9213 32.959 17.865 32.9252C17.8594 32.9928 17.8537 33.0491 17.8481 33.1055C17.8312 33.1111 17.8199 33.1224 17.803 33.128C17.7467 33.0491 17.696 32.9703 17.6397 32.897C17.5946 32.9759 17.5496 33.0491 17.5045 33.1224C17.4538 33.0379 17.4087 32.9534 17.3411 32.8351C17.3073 32.9703 17.2792 33.0773 17.2397 33.2237C17.2003 33.173 17.1665 33.1505 17.1721 33.128C17.1947 32.8914 17.0595 32.6999 16.975 32.4971C16.9581 32.4464 16.9581 32.3901 16.9637 32.3337C16.9637 32.3225 17.0426 32.2943 17.0539 32.3056C17.0933 32.345 17.1271 32.3901 17.144 32.4408C17.1778 32.5365 17.1947 32.6379 17.2172 32.7393C17.2397 32.7337 17.2679 32.7337 17.2904 32.728C17.2792 32.6267 17.2679 32.5253 17.2623 32.4239C17.2566 32.3563 17.2679 32.2943 17.2792 32.2267C17.2792 32.2211 17.3637 32.2098 17.3693 32.2211C17.4031 32.2774 17.4256 32.345 17.4425 32.407C17.4651 32.514 17.482 32.621 17.4989 32.728C17.5158 32.728 17.5383 32.728 17.5552 32.7224C17.5552 32.6379 17.5552 32.5478 17.5552 32.4633C17.5552 32.4239 17.5327 32.3788 17.5439 32.3394C17.5665 32.2774 17.6059 32.2154 17.6397 32.1591C17.6678 32.2154 17.7185 32.2718 17.7242 32.3281C17.7354 32.452 17.7298 32.5816 17.7298 32.7055C17.7467 32.7055 17.7692 32.7111 17.7861 32.7111C17.803 32.6098 17.8199 32.5027 17.8425 32.4013C17.8594 32.3337 17.8819 32.2605 17.9157 32.1985C17.9213 32.1873 18.0058 32.2042 18.0058 32.2098C18.0115 32.283 18.0115 32.3506 18.0002 32.4239C17.9833 32.5365 17.9551 32.6436 17.9326 32.7562C17.972 32.7618 17.9889 32.7675 18.0115 32.7675Z" fill="white"/>
<path d="M13.0769 34.0067C13.0431 33.9448 13.0037 33.8997 12.9812 33.8434C12.891 33.6124 12.8178 33.3702 12.722 33.1449C12.6713 33.021 12.677 32.9421 12.784 32.852C12.9417 32.728 13.0826 32.5816 13.229 32.4464C13.4318 32.6661 13.3417 33.6575 13.0769 34.0067Z" fill="white"/>
<path d="M16.6934 33.5842C16.5131 33.4885 16.3329 33.3983 16.1583 33.3026C16.1132 33.2744 16.0738 33.235 16.04 33.1956C16.0343 33.1843 16.0738 33.1167 16.0907 33.1167C16.1414 33.1167 16.2033 33.1223 16.2484 33.1505C16.4624 33.2913 16.6652 33.4378 16.9187 33.6124C16.761 33.6969 16.6483 33.7589 16.4962 33.8433C16.6033 33.8771 16.6708 33.8997 16.761 33.9278C16.7272 33.9673 16.7103 34.0123 16.6821 34.0236C16.4399 34.0912 16.192 34.1532 15.9442 34.2039C15.916 34.2095 15.8428 34.125 15.8372 34.0743C15.8203 33.9842 15.8428 33.894 15.8484 33.8039C15.8541 33.6969 15.8822 33.6349 16.0118 33.68C16.1357 33.7251 16.2765 33.7363 16.4061 33.7589C16.4117 33.7363 16.4174 33.7138 16.4174 33.6913C16.2991 33.6631 16.1808 33.6462 16.0681 33.6124C16.0174 33.5955 15.9611 33.5673 15.9329 33.5279C15.916 33.5054 15.9386 33.4152 15.9611 33.404C16.0118 33.3871 16.0738 33.3927 16.1245 33.4152C16.2709 33.4772 16.4117 33.5504 16.5526 33.618C16.5864 33.6349 16.6314 33.6293 16.6708 33.6406C16.6821 33.618 16.6877 33.6011 16.6934 33.5842ZM15.9893 33.9053C15.9893 33.9335 15.9949 33.9616 15.9949 33.9898C16.1301 33.9785 16.2709 33.9673 16.4061 33.956C16.4061 33.9391 16.4061 33.9222 16.4005 33.9053C16.2653 33.9053 16.1245 33.9053 15.9893 33.9053Z" fill="white"/>
<path d="M11.218 35.2459C11.3194 35.353 11.4208 35.46 11.5447 35.5952C11.2856 35.6065 11.1166 35.398 10.9082 34.908C11.2349 34.8854 11.5673 34.8629 11.8996 34.8347C12.1024 34.8178 12.0799 34.846 12.0855 35.0488C12.0911 35.229 11.9447 35.3192 11.9278 35.4769C11.9278 35.4994 11.8039 35.5389 11.7644 35.522C11.6123 35.4487 11.4715 35.353 11.3251 35.2685C11.2969 35.2516 11.2687 35.2403 11.2406 35.229C11.2293 35.2347 11.2237 35.2403 11.218 35.2459ZM11.3814 35.0657C11.3701 35.0995 11.3645 35.1277 11.3532 35.1615C11.5447 35.1615 11.6687 35.3868 11.8771 35.3248C11.8827 35.3023 11.894 35.2797 11.8996 35.2572C11.725 35.1952 11.5504 35.1277 11.3814 35.0657Z" fill="white"/>
<path d="M16.6482 34.5137C16.5017 34.5813 16.3609 34.6433 16.2145 34.7109C16.1863 34.7221 16.1694 34.7559 16.1469 34.7616C16.1018 34.7728 16.0455 34.7841 16.0004 34.7728C15.9722 34.7616 15.9441 34.6996 15.9553 34.6714C15.9666 34.632 16.006 34.5926 16.0455 34.5757C16.1581 34.5306 16.2821 34.5024 16.3947 34.4517C16.5806 34.3672 16.7214 34.4405 16.8735 34.5644C16.6651 34.7278 16.4623 34.8855 16.2652 35.0376C16.2821 35.0601 16.299 35.0883 16.3215 35.1108C16.5468 34.9531 16.7721 34.7897 16.9974 34.632C17.0143 34.6545 17.0312 34.6771 17.0481 34.694C16.9298 34.8066 16.8059 34.9193 16.6876 35.0319C16.6088 35.1108 16.5355 35.1953 16.451 35.2685C16.4172 35.2967 16.3328 35.3192 16.3215 35.3079C16.237 35.2009 16.1581 35.0883 16.1018 34.97C16.0905 34.9474 16.1581 34.8629 16.2032 34.8348C16.3553 34.7447 16.5186 34.6658 16.6764 34.5813C16.6707 34.5588 16.6595 34.5362 16.6482 34.5137Z" fill="white"/>
<path d="M16.4228 30.7114C16.4228 30.8523 16.2988 31.0325 16.1636 31.0494C16.1073 31.055 16.0228 31.01 15.989 30.9593C15.9158 30.8466 15.8595 30.7227 15.8088 30.5988C15.7862 30.5424 15.7581 30.4354 15.7862 30.4129C15.8651 30.3453 15.9721 30.2721 16.0679 30.2721C16.2087 30.2664 16.4228 30.565 16.4228 30.7114Z" fill="white"/>
<path d="M11.0097 34.4067C11.066 34.3672 11.1111 34.3391 11.1505 34.3109C11.066 34.1306 11.0435 34.1194 10.7957 34.1644C10.8914 34.0405 10.959 33.9448 11.0266 33.8546C11.0998 34.2039 11.3533 34.2489 11.6124 34.3109C11.7927 34.3503 11.9617 34.4348 12.1419 34.4968C12.0462 34.5925 11.1956 34.5193 11.0097 34.4067Z" fill="white"/>
<path d="M12.0516 31.1677C12.2544 31.3085 12.4515 31.4437 12.6487 31.5902C12.6656 31.6071 12.6431 31.7254 12.6262 31.731C12.5135 31.7592 12.4234 31.8606 12.2882 31.6803C12.2037 31.562 12.1079 31.4437 12.0403 31.3085C12.0234 31.2747 12.0234 31.2353 12.0122 31.1959C12.0291 31.1902 12.0403 31.179 12.0516 31.1677Z" fill="white"/>
<path d="M12.2434 33.4153C12.2997 33.3589 12.3448 33.3139 12.3899 33.2632C12.4293 33.3026 12.48 33.3364 12.4969 33.3871C12.5701 33.5617 12.6377 33.7364 12.6997 33.9166C12.7166 33.9617 12.694 34.0236 12.6884 34.08C12.6377 34.0574 12.5645 34.0518 12.542 34.018C12.4406 33.8208 12.3504 33.6237 12.2434 33.4153Z" fill="white"/>
<path d="M16.6651 34.1476C16.6989 34.1757 16.7271 34.2039 16.7553 34.232C16.7271 34.2546 16.6989 34.2827 16.6651 34.294C16.468 34.3616 16.2652 34.4236 16.0624 34.4855C16.0117 34.5024 15.9497 34.5081 15.899 34.4855C15.8765 34.4743 15.854 34.3898 15.8709 34.3672C15.899 34.3278 15.9554 34.2996 16.0061 34.2827C16.2201 34.232 16.4342 34.1926 16.6651 34.1476Z" fill="white"/>
<path d="M9.40439 34.0518C9.39875 34.0461 9.39312 34.0461 9.38749 34.0405C9.22977 33.9166 9.07204 33.7983 8.91995 33.6744C8.86926 33.6349 8.82419 33.5786 8.7904 33.5279C8.78476 33.5166 8.84109 33.4434 8.85236 33.4434C8.91432 33.466 8.97628 33.4941 9.02698 33.5335C9.17344 33.6462 9.31426 33.7645 9.44945 33.8828C9.50015 33.9279 9.53394 33.9898 9.57338 34.0405C9.56774 34.0518 9.55648 34.0687 9.55084 34.0799C9.50578 34.0743 9.45508 34.063 9.40439 34.0518Z" fill="white"/>
<path d="M9.49447 35.1784C9.5339 35.1897 9.57897 35.2066 9.65219 35.2291C9.5508 35.3361 9.46631 35.4206 9.38745 35.4995C9.29169 35.5952 9.20156 35.6966 9.1058 35.7924C9.0551 35.8431 8.99314 35.8769 8.93118 35.9163C8.90864 35.8431 8.88048 35.7755 8.85795 35.7023L8.85232 35.7079C8.99314 35.6065 9.14523 35.5164 9.28042 35.4037C9.35928 35.3417 9.42688 35.2516 9.49447 35.1784Z" fill="white"/>
<path d="M9.81541 33.8546C9.62952 33.6293 9.44364 33.4096 9.26901 33.1787C9.24648 33.1505 9.28028 33.0773 9.28591 33.021C9.33661 33.0435 9.40984 33.0548 9.438 33.0942C9.57883 33.2913 9.70275 33.4941 9.83231 33.6969C9.85484 33.7307 9.85484 33.7814 9.86611 33.8208C9.84921 33.8377 9.83231 33.849 9.81541 33.8546Z" fill="white"/>
<path d="M18.2762 33.2406C18.355 33.1111 18.4339 32.9871 18.5128 32.8576C18.5635 32.7787 18.6085 32.6942 18.6705 32.6266C18.7043 32.5872 18.755 32.559 18.8057 32.5365C18.8226 32.5309 18.8789 32.5703 18.8789 32.5928C18.8789 32.6379 18.862 32.6942 18.8338 32.7337C18.7155 32.8801 18.5973 33.0266 18.4733 33.1674C18.4283 33.2181 18.3719 33.2463 18.3212 33.2913C18.31 33.2744 18.2931 33.2575 18.2762 33.2406Z" fill="white"/>
<path d="M9.7478 35.46C9.65768 35.5501 9.55628 35.6346 9.47742 35.7304C9.39856 35.8318 9.34786 35.9557 9.269 36.0571C9.24084 36.0909 9.16198 36.0853 9.11128 36.1022C9.10565 36.0515 9.08312 35.9782 9.10565 35.9501C9.2859 35.7417 9.47742 35.5445 9.68584 35.3192C9.71401 35.3868 9.7309 35.4262 9.7478 35.46Z" fill="white"/>
<path d="M18.0959 33.1336C18.1861 32.959 18.2762 32.79 18.3663 32.6154C18.4001 32.5534 18.417 32.4802 18.4621 32.4295C18.4846 32.4013 18.5522 32.3844 18.5916 32.3957C18.6142 32.4013 18.6423 32.4915 18.6254 32.514C18.4903 32.7224 18.3438 32.9252 18.1973 33.128C18.1861 33.1449 18.1579 33.1505 18.141 33.1618C18.1241 33.1505 18.1128 33.1393 18.0959 33.1336Z" fill="white"/>
<path d="M17.0031 33.5448C16.7271 33.3477 16.4849 33.1843 16.2539 33.0097C16.2258 32.9872 16.2258 32.9196 16.2089 32.8745C16.2539 32.8689 16.3215 32.8407 16.3497 32.8576C16.5638 33.0491 16.7722 33.2463 16.9806 33.4434C16.9862 33.4547 16.9862 33.4772 17.0031 33.5448Z" fill="white"/>
<path d="M9.67465 33.9504C9.4606 33.7645 9.24092 33.5786 9.0325 33.3815C9.00433 33.3589 9.0325 33.2801 9.0325 33.2294C9.07756 33.235 9.14516 33.2294 9.16769 33.2575C9.35358 33.4716 9.53946 33.6913 9.71972 33.911C9.70282 33.9279 9.69155 33.9391 9.67465 33.9504Z" fill="white"/>
<path d="M11.5166 35.8487C11.5335 35.7811 11.5335 35.7304 11.5504 35.7135C11.5842 35.6853 11.6349 35.6572 11.68 35.6572C11.7081 35.6572 11.7645 35.6966 11.7645 35.7248C11.7645 35.7642 11.7363 35.8092 11.7138 35.843C11.6631 35.905 11.6067 35.967 11.5448 36.0233C11.511 36.0515 11.4378 36.0853 11.4321 36.074C11.3589 35.9895 11.2969 35.8937 11.2293 35.8036C11.2688 35.7811 11.3082 35.7417 11.3364 35.7473C11.3871 35.7586 11.4378 35.8036 11.5166 35.8487Z" fill="white"/>
<path d="M17.0819 34.9024C17.0481 34.9531 17.0199 35.0094 16.9861 35.0601C16.8903 35.1953 16.7946 35.3249 16.6932 35.4544C16.665 35.4882 16.6143 35.5164 16.5693 35.522C16.5411 35.522 16.4904 35.4769 16.4848 35.4488C16.4791 35.415 16.5073 35.3643 16.5355 35.3361C16.6481 35.2178 16.7608 35.0995 16.8791 34.9869C16.9241 34.9418 16.9805 34.908 17.0312 34.8686C17.0481 34.8742 17.065 34.8911 17.0819 34.9024Z" fill="white"/>
<path d="M16.9636 33.2632C16.9186 33.235 16.8679 33.2125 16.8285 33.1787C16.6933 33.0548 16.5637 32.9308 16.4398 32.7956C16.4116 32.7675 16.4342 32.6943 16.4342 32.6379C16.4792 32.6379 16.5412 32.621 16.5581 32.6436C16.7102 32.8294 16.8566 33.0266 17.0031 33.2181C16.9918 33.235 16.9805 33.2463 16.9636 33.2632Z" fill="white"/>
<path d="M17.0538 33.1167C16.9073 32.9027 16.7834 32.7281 16.6651 32.5478C16.6539 32.5253 16.6877 32.4577 16.7158 32.4351C16.7384 32.4182 16.8116 32.4295 16.8228 32.452C16.9186 32.621 17.0087 32.7957 17.0932 32.9646C17.0989 32.9928 17.0763 33.0266 17.0538 33.1167Z" fill="white"/>
<path d="M9.71979 35.6403C9.71979 35.691 9.73669 35.7529 9.71979 35.798C9.66909 35.9275 9.61276 36.0571 9.5508 36.181C9.52827 36.2205 9.48321 36.2655 9.44377 36.2768C9.40998 36.2824 9.34238 36.243 9.33675 36.2148C9.32548 36.1754 9.35365 36.1191 9.37618 36.0796C9.47194 35.9275 9.57333 35.7811 9.67473 35.6346C9.68599 35.6346 9.70289 35.6403 9.71979 35.6403Z" fill="white"/>
<path d="M12.4629 35.4544C12.4685 35.2685 12.491 35.1277 12.615 34.9981C12.6488 35.0488 12.6657 35.077 12.6826 35.1051C12.7276 35.1896 12.7727 35.2685 12.8121 35.353C12.7051 35.3812 12.5981 35.415 12.4629 35.4544Z" fill="white"/>
<path d="M12.1587 32.4464C12.0686 32.5985 11.9841 32.7562 11.8884 32.9027C11.8771 32.9252 11.8151 32.9308 11.7813 32.9196C11.7644 32.9139 11.7419 32.852 11.7475 32.8294C11.8433 32.6661 11.9278 32.4971 12.0911 32.3957C12.1193 32.4182 12.1362 32.4295 12.1587 32.4464Z" fill="white"/>
<path d="M12.8292 34.4911C12.7447 34.6207 12.7109 34.7446 12.8123 34.8685C12.8235 34.8854 12.7897 34.9361 12.7785 34.9699C12.739 34.9474 12.6771 34.9361 12.6714 34.908C12.6489 34.7897 12.632 34.6657 12.6433 34.5418C12.6433 34.508 12.7334 34.4799 12.7841 34.4517C12.801 34.4686 12.8179 34.4799 12.8292 34.4911Z" fill="white"/>
<path d="M10.9533 35.5332C10.9195 35.5614 10.8913 35.6065 10.8575 35.6121C10.728 35.6346 10.5984 35.6403 10.4463 35.6177C10.559 35.5501 10.6716 35.4769 10.7899 35.4093C10.8463 35.4544 10.9026 35.4938 10.9533 35.5332Z" fill="white"/>
<path d="M10.9533 35.5389C10.9364 35.4713 10.9251 35.4037 10.9082 35.3305C10.9195 35.3192 10.9308 35.3079 10.942 35.2967C11.0265 35.3924 11.111 35.4882 11.1955 35.5896C11.1786 35.6065 11.1617 35.6234 11.1504 35.6403C11.0885 35.6008 11.0209 35.567 10.9533 35.5389Z" fill="white"/>
<path d="M13.2009 34.463C13.077 34.4067 13.0038 34.3841 12.9362 34.3447C12.9136 34.3334 12.8967 34.2884 12.8911 34.2602C12.8911 34.2377 12.9193 34.1983 12.9362 34.1983C12.9643 34.1983 13.0038 34.2152 13.0207 34.2377C13.0826 34.2997 13.1277 34.3616 13.2009 34.463Z" fill="white"/>
<path d="M10.007 35.6234C10.0183 35.415 10.114 35.3361 10.3224 35.3812C10.2098 35.4657 10.1084 35.5445 10.007 35.6234Z" fill="white"/>
<path d="M13.1502 35.0601C13.1164 35.1051 13.0883 35.1727 13.0432 35.1896C13.0038 35.2009 12.9418 35.1558 12.8911 35.1389C12.8967 35.122 12.8967 35.1051 12.9024 35.0882C12.9869 35.0826 13.0714 35.077 13.1502 35.0601Z" fill="white"/>
<path d="M13.1557 35.0657C13.1613 35.0376 13.167 35.0094 13.1782 34.9812C13.1839 34.97 13.2008 34.9587 13.2233 34.9418C13.2853 34.9981 13.3472 35.0545 13.4036 35.1108C13.3979 35.1277 13.3923 35.139 13.3867 35.1559C13.3078 35.1277 13.2289 35.0939 13.1557 35.0657Z" fill="white"/>
<path d="M34.8258 4.507C34.7751 5.02523 34.5723 5.46461 34.2456 5.84765C34.2175 5.87581 34.1048 5.87581 34.0766 5.84765C33.8739 5.63359 33.688 5.40828 33.4964 5.18296C33.3613 5.0196 33.2655 4.83935 33.2711 4.61966C33.2768 4.39998 33.4232 4.26479 33.626 4.32112C33.9133 4.40561 34.1837 4.36055 34.4597 4.26479C34.6681 4.18592 34.8315 4.30422 34.8258 4.507Z" fill="white"/>
<path d="M29.4858 4.52954C29.407 4.6929 29.3563 4.87315 29.2493 5.00834C29.0465 5.25619 28.8099 5.47024 28.5902 5.70119C28.5001 5.79695 28.4325 5.78005 28.3649 5.67303C28.1227 5.30125 27.948 4.90695 27.8973 4.46195C27.8579 4.15214 28.0156 4.01694 28.3029 4.1296C28.5564 4.231 28.8099 4.27606 29.0803 4.21973C29.2831 4.18593 29.4408 4.32112 29.4858 4.52954Z" fill="white"/>
</svg>
